<svg width="768" height="768" viewBox="0 0 768 768" fill="none" xmlns="http://www.w3.org/2000/svg">
  <!-- Background -->
  <rect width="768" height="768" fill="#0B1B2B"/>
  
  <!-- Jellyfish icon -->
  <g transform="translate(384, 180)">
    <!-- Jellyfish bell -->
    <path d="M-80 0 Q-80 -60, -40 -80 Q0 -100, 40 -80 Q80 -60, 80 0 Q80 20, 60 30 Q40 40, 0 40 Q-40 40, -60 30 Q-80 20, -80 0" 
          fill="#1AA3A3" stroke="#1AA3A3" stroke-width="3"/>
    
    <!-- Jellyfish tentacles -->
    <g opacity="0.8">
      <circle cx="-50" cy="50" r="4" fill="#1AA3A3"/>
      <circle cx="-50" cy="70" r="5" fill="#1AA3A3"/>
      <circle cx="-50" cy="95" r="6" fill="#1AA3A3"/>
      <circle cx="-50" cy="125" r="7" fill="#1AA3A3"/>
      
      <circle cx="-25" cy="55" r="4" fill="#1AA3A3"/>
      <circle cx="-25" cy="80" r="5" fill="#1AA3A3"/>
      <circle cx="-25" cy="110" r="6" fill="#1AA3A3"/>
      
      <circle cx="0" cy="50" r="4" fill="#1AA3A3"/>
      <circle cx="0" cy="75" r="5" fill="#1AA3A3"/>
      <circle cx="0" cy="105" r="6" fill="#1AA3A3"/>
      <circle cx="0" cy="140" r="7" fill="#1AA3A3"/>
      
      <circle cx="25" cy="55" r="4" fill="#1AA3A3"/>
      <circle cx="25" cy="80" r="5" fill="#1AA3A3"/>
      <circle cx="25" cy="110" r="6" fill="#1AA3A3"/>
      
      <circle cx="50" cy="50" r="4" fill="#1AA3A3"/>
      <circle cx="50" cy="70" r="5" fill="#1AA3A3"/>
      <circle cx="50" cy="95" r="6" fill="#1AA3A3"/>
      <circle cx="50" cy="125" r="7" fill="#1AA3A3"/>
    </g>
  </g>
  
  <!-- Shield/protection icon -->
  <g transform="translate(384, 320)">
    <path d="M0 -40 L-100 -20 L-100 60 Q-100 100, -60 130 Q-20 160, 0 170 Q20 160, 60 130 Q100 100, 100 60 L100 -20 Z" 
          fill="none" stroke="#1AA3A3" stroke-width="8"/>
    
    <!-- Dots inside shield showing concentration -->
    <g opacity="0.6">
      <circle cx="-40" cy="20" r="3" fill="#1AA3A3"/>
      <circle cx="-20" cy="30" r="3" fill="#1AA3A3"/>
      <circle cx="0" cy="25" r="3" fill="#1AA3A3"/>
      <circle cx="20" cy="30" r="3" fill="#1AA3A3"/>
      <circle cx="40" cy="20" r="3" fill="#1AA3A3"/>
      
      <circle cx="-30" cy="50" r="4" fill="#1AA3A3"/>
      <circle cx="-10" cy="55" r="4" fill="#1AA3A3"/>
      <circle cx="10" cy="55" r="4" fill="#1AA3A3"/>
      <circle cx="30" cy="50" r="4" fill="#1AA3A3"/>
      
      <circle cx="-20" cy="75" r="5" fill="#1AA3A3"/>
      <circle cx="0" cy="80" r="5" fill="#1AA3A3"/>
      <circle cx="20" cy="75" r="5" fill="#1AA3A3"/>
      
      <circle cx="-10" cy="100" r="6" fill="#1AA3A3"/>
      <circle cx="10" cy="100" r="6" fill="#1AA3A3"/>
    </g>
  </g>
  
  <!-- JellyGuard text -->
  <text x="384" y="580" font-family="Arial, sans-serif" font-size="72" font-weight="700" fill="white" text-anchor="middle">
    JellyGuard
  </text>
  
  <!-- TM symbol -->
  <text x="640" y="555" font-family="Arial, sans-serif" font-size="24" fill="white">
    ™
  </text>
</svg>
